<?xml version="1.0" encoding="UTF-8" standalone="no"?>
<!-- Created with Inkscape (http://www.inkscape.org/) -->

<svg
   width="169mm"
   height="169mm"
   viewBox="0 0 169 169"
   version="1.1"
   id="svg1"
   xml:space="preserve"
   inkscape:version="1.4.2 (ebf0e940d0, 2025-05-08)"
   sodipodi:docname="bluestation_noname.svg"
   inkscape:export-filename="bluestation_noname.png"
   inkscape:export-xdpi="150.29585"
   inkscape:export-ydpi="150.29585"
   xmlns:inkscape="http://www.inkscape.org/namespaces/inkscape"
   xmlns:sodipodi="http://sodipodi.sourceforge.net/DTD/sodipodi-0.dtd"
   xmlns="http://www.w3.org/2000/svg"
   xmlns:svg="http://www.w3.org/2000/svg"><sodipodi:namedview
     id="namedview1"
     pagecolor="#ffffff"
     bordercolor="#000000"
     borderopacity="0.25"
     inkscape:showpageshadow="2"
     inkscape:pageopacity="0.0"
     inkscape:pagecheckerboard="0"
     inkscape:deskcolor="#d1d1d1"
     inkscape:document-units="mm"
     inkscape:zoom="1.4601735"
     inkscape:cx="163.33675"
     inkscape:cy="297.56738"
     inkscape:window-width="1704"
     inkscape:window-height="1368"
     inkscape:window-x="0"
     inkscape:window-y="0"
     inkscape:window-maximized="0"
     inkscape:current-layer="layer1"
     showguides="false"
     inkscape:export-bgcolor="#ffffff00" /><defs
     id="defs1" /><g
     inkscape:label="Layer 1"
     inkscape:groupmode="layer"
     id="layer1"><g
       id="g1"
       transform="matrix(0.19164336,0,0,0.19164336,-13.993413,-15.350191)"
       style="fill:#265396;fill-opacity:1;stroke:none;stroke-opacity:1"><g
         id="#18181bff"
         style="fill:#265396;fill-opacity:1;stroke:none;stroke-opacity:1" /><g
         id="#292c64ff"
         style="fill:#265396;fill-opacity:1;stroke:none;stroke-opacity:1"><path
           fill="#292c64"
           opacity="1"
           d="m 479.76,189.9 c 29.02,-3.09 58.42,-2.26 87.28,1.96 27.47,4.58 54.17,13.25 79.58,24.58 44.08,21.3 84.57,51.29 114.71,90.13 1.22,1.78 3.01,3.33 3.66,5.42 -1.77,2.38 -3.99,4.46 -6.44,6.12 -19.79,-25.89 -43.76,-48.55 -70.4,-67.29 -11.44,-7.41 -22.53,-15.53 -34.98,-21.19 -49.25,-26.68 -106.38,-37.86 -162.11,-33.5 -59.77,4.58 -118.32,26.98 -165.07,64.64 -1.06,-1.52 -2.16,-3 -3.31,-4.44 12.55,-11.78 27.15,-21.09 42.11,-29.5 15.14,-8.05 30.55,-15.75 46.91,-21.03 21.97,-7.91 44.83,-13.44 68.06,-15.9 z"
           id="path1"
           style="fill:#265396;fill-opacity:1;stroke:none;stroke-opacity:1" /><path
           fill="#292c64"
           opacity="1"
           d="m 512.06,222.24 c 4.5,-0.1 9.01,0.03 13.51,0.33 -0.18,2.63 -0.44,5.26 -0.94,7.86 -4.39,-0.12 -8.81,0.06 -13.15,-0.65 0.22,-2.51 0.37,-5.03 0.58,-7.54 z"
           id="path2"
           style="fill:#265396;fill-opacity:1;stroke:none;stroke-opacity:1" /><path
           fill="#292c64"
           opacity="1"
           d="m 365.95,260.16 c 42.66,-24.8 91.99,-38.02 141.34,-37.85 -0.36,2.44 -0.52,4.91 -0.59,7.38 -6.24,0.46 -12.5,0.47 -18.74,0.78 -22.72,1.51 -45.4,5.31 -66.95,12.82 -15.77,4.84 -31.02,11.3 -45.55,19.08 -2.01,0.92 -3.91,2.65 -6.23,2.49 -1.3,-1.41 -2.27,-3.09 -3.28,-4.7 z"
           id="path3"
           style="fill:#265396;fill-opacity:1;stroke:none;stroke-opacity:1" /><path
           fill="#292c64"
           opacity="1"
           d="m 531.27,223.21 c 9.7,0.43 19.26,2.27 28.77,4.11 12.15,2.64 24.34,5.34 36.01,9.7 -0.79,2.6 -1.51,5.21 -2.28,7.82 -20.55,-7.01 -41.85,-11.84 -63.5,-13.68 0.12,-2.67 0.45,-5.33 1,-7.95 z"
           id="path4"
           style="fill:#265396;fill-opacity:1;stroke:none;stroke-opacity:1" /><path
           fill="#292c64"
           opacity="1"
           d="m 602.26,247.55 c 1.2,-2.44 2.29,-4.93 3.46,-7.38 2.51,1.22 5.1,2.29 7.82,2.94 -0.73,2.69 -2.06,5.14 -3.5,7.51 -2.58,-1.08 -5.19,-2.06 -7.78,-3.07 z"
           id="path5"
           style="fill:#265396;fill-opacity:1;stroke:none;stroke-opacity:1" /><path
           fill="#292c64"
           opacity="1"
           d="m 616.42,245.14 c 3.7,0.79 7.05,2.65 10.3,4.53 -1.32,2.26 -2.54,4.57 -3.72,6.9 -3.37,-1.24 -6.54,-2.93 -9.81,-4.38 1.13,-2.33 2.2,-4.68 3.23,-7.05 z"
           id="path6"
           style="fill:#265396;fill-opacity:1;stroke:none;stroke-opacity:1" /><path
           fill="#292c64"
           opacity="1"
           d="m 632.99,252.59 c 22.68,10.92 43.39,25.58 62.51,41.86 -2.02,2.22 -4.22,4.27 -6.47,6.25 -18.08,-16.04 -38.28,-29.63 -59.66,-40.87 1.3,-2.37 2.54,-4.77 3.62,-7.24 z"
           id="path7"
           style="fill:#265396;fill-opacity:1;stroke:none;stroke-opacity:1" /><path
           fill="#292c64"
           opacity="1"
           d="m 458.15,258.41 c 20.27,-3.56 41.01,-3.46 61.48,-1.91 -0.3,2.46 -0.72,4.91 -1.13,7.36 -22.74,-1.14 -45.73,-1.25 -68.14,3.27 -10.34,1.61 -20.3,4.88 -30.45,7.3 -0.51,-2.14 -1.1,-4.26 -1.72,-6.37 13.05,-4.2 26.36,-7.8 39.96,-9.65 z"
           id="path8"
           style="fill:#265396;fill-opacity:1;stroke:none;stroke-opacity:1" /><path
           fill="#292c64"
           opacity="1"
           d="m 523.5,264.55 c 0.51,-2.46 0.95,-4.92 1.33,-7.4 4.75,0.35 9.48,1.06 14.12,2.17 -0.62,2.44 -1.25,4.88 -1.77,7.35 -4.5,-1.07 -9.11,-1.54 -13.68,-2.12 z"
           id="path9"
           style="fill:#265396;fill-opacity:1;stroke:none;stroke-opacity:1" /><path
           fill="#292c64"
           opacity="1"
           d="m 540.57,267.4 c 0.76,-2.47 1.41,-4.97 2.11,-7.46 4.41,0.89 8.78,1.95 13.19,2.82 -0.61,2.42 -1.34,4.81 -2.12,7.18 -4.43,-0.68 -8.73,-2.05 -13.18,-2.54 z"
           id="path10"
           style="fill:#265396;fill-opacity:1;stroke:none;stroke-opacity:1" /><path
           fill="#292c64"
           opacity="1"
           d="m 338.35,278.27 c 7.97,-5.58 15.74,-11.53 24.41,-16 1.03,1.76 2.19,3.46 3.49,5.05 -13.34,8.74 -26.82,17.41 -38.78,28.05 -3.9,2.93 -7.08,6.67 -10.95,9.63 -1.33,-1.45 -2.79,-2.76 -4.35,-3.93 7.8,-8.6 17.04,-15.7 26.18,-22.8 z"
           id="path11"
           style="fill:#265396;fill-opacity:1;stroke:none;stroke-opacity:1" /><path
           fill="#292c64"
           opacity="1"
           d="m 560.36,264.11 c 5.85,1.2 11.53,3.06 17.26,4.7 -1,2.38 -2.09,4.74 -3.22,7.06 -5.37,-1.58 -10.76,-3.12 -16.17,-4.52 0.83,-2.38 1.54,-4.79 2.13,-7.24 z"
           id="path12"
           style="fill:#265396;fill-opacity:1;stroke:none;stroke-opacity:1" /><path
           fill="#292c64"
           opacity="1"
           d="m 305.04,271.38 c 2.63,-2.42 5.24,-4.85 7.82,-7.31 1.22,1.56 2.64,2.95 4.23,4.14 -2.94,2.61 -5.58,5.54 -8.7,7.94 -1.11,-1.6 -2.24,-3.18 -3.35,-4.77 z"
           id="path13"
           style="fill:#265396;fill-opacity:1;stroke:none;stroke-opacity:1" /><path
           fill="#292c64"
           opacity="1"
           d="m 404.59,272.96 c 2.24,-0.77 4.45,-1.63 6.63,-2.57 0.73,2.07 1.58,4.1 2.63,6.04 -2.2,1 -4.46,1.83 -6.77,2.54 -0.71,-2.05 -1.56,-4.05 -2.49,-6.01 z"
           id="path14"
           style="fill:#265396;fill-opacity:1;stroke:none;stroke-opacity:1" /><path
           fill="#292c64"
           opacity="1"
           d="m 582.13,270.95 c 4.04,1.1 7.96,2.58 11.84,4.16 -1.16,2.33 -2.22,4.7 -3.04,7.16 -4.01,-1.36 -7.91,-3.02 -11.83,-4.61 0.92,-2.28 1.95,-4.51 3.03,-6.71 z"
           id="path15"
           style="fill:#265396;fill-opacity:1;stroke:none;stroke-opacity:1" /><path
           fill="#292c64"
           opacity="1"
           d="m 398.64,275.42 c 0.88,1.96 1.69,3.95 2.4,5.98 -20.84,9.61 -40.95,21.2 -58.52,36.06 -13.61,11.27 -25.64,24.35 -36.33,38.4 -1.61,-1.52 -3.26,-3.01 -4.91,-4.48 11.44,-14.43 24.11,-27.94 38.23,-39.77 18.02,-14.55 37.85,-27 59.13,-36.19 z"
           id="path16"
           style="fill:#265396;fill-opacity:1;stroke:none;stroke-opacity:1" /><path
           fill="#292c64"
           opacity="1"
           d="m 283.13,293.9 c 5.65,-6.14 11.16,-12.49 17.64,-17.79 1.3,1.28 2.65,2.51 4.03,3.72 -5.68,5.94 -11.46,11.81 -16.82,18.04 -1.54,-1.42 -3.15,-2.75 -4.85,-3.97 z"
           id="path17"
           style="fill:#265396;fill-opacity:1;stroke:none;stroke-opacity:1" /><path
           fill="#292c64"
           opacity="1"
           d="m 596.86,284.91 c 1.23,-2.29 2.61,-4.49 4.01,-6.68 3.84,1.39 7.4,3.38 11,5.27 -0.98,2.19 -2.05,4.34 -3.13,6.49 -4.13,-1.28 -7.95,-3.35 -11.88,-5.08 z"
           id="path18"
           style="fill:#265396;fill-opacity:1;stroke:none;stroke-opacity:1" /><path
           fill="#292c64"
           opacity="1"
           d="m 419.01,297.59 c 18.17,-5.53 36.85,-10.25 55.97,-10.31 18.18,-0.79 36.52,0.34 54.38,3.96 8.45,1.95 17.1,3.35 25.26,6.41 -0.79,2.14 -1.6,4.27 -2.48,6.37 -32.01,-9.29 -66.01,-12.62 -99.03,-7.48 -10.87,1.49 -21.53,4.17 -32.02,7.31 -0.8,-2.06 -1.55,-4.12 -2.08,-6.26 z"
           id="path19"
           style="fill:#265396;fill-opacity:1;stroke:none;stroke-opacity:1" /><path
           fill="#292c64"
           opacity="1"
           d="m 618.15,286.5 c 5.15,2.28 9.86,5.39 14.78,8.11 -1.33,2.33 -2.73,4.62 -4.16,6.89 -4.84,-2.36 -9.57,-4.94 -14.16,-7.73 1.17,-2.43 2.34,-4.85 3.54,-7.27 z"
           id="path20"
           style="fill:#265396;fill-opacity:1;stroke:none;stroke-opacity:1" /><path
           fill="#292c64"
           opacity="1"
           d="m 699.36,298.58 c 3.45,3.07 6.72,6.35 9.65,9.92 -1.93,1.79 -3.89,3.54 -5.9,5.24 -2.91,-3.07 -6.19,-5.75 -9.14,-8.78 1.72,-2.19 3.53,-4.3 5.39,-6.38 z"
           id="path21"
           style="fill:#265396;fill-opacity:1;stroke:none;stroke-opacity:1" /><path
           fill="#292c64"
           opacity="1"
           d="m 272.63,307.04 c 2.15,-2.55 4.22,-5.17 6.37,-7.73 1.51,1.4 3.03,2.79 4.55,4.19 -1.99,2.42 -3.94,4.87 -5.97,7.25 -1.63,-1.27 -3.28,-2.51 -4.95,-3.71 z"
           id="path22"
           style="fill:#265396;fill-opacity:1;stroke:none;stroke-opacity:1" /><path
           fill="#292c64"
           opacity="1"
           d="m 560.32,299.99 c 3.93,0.57 7.56,2.21 11.1,3.93 -0.92,1.98 -1.83,3.97 -2.74,5.95 -3.5,-1.24 -6.98,-2.54 -10.48,-3.75 0.66,-2.06 1.39,-4.1 2.12,-6.13 z"
           id="path23"
           style="fill:#265396;fill-opacity:1;stroke:none;stroke-opacity:1" /><path
           fill="#292c64"
           opacity="1"
           d="m 641.33,300.22 c 13.46,9.05 25.9,19.53 37.32,31.03 -2.18,1.7 -3.76,4.79 -6.43,5.51 -10.94,-10.66 -22.7,-20.53 -35.33,-29.14 1.51,-2.45 3.01,-4.9 4.44,-7.4 z"
           id="path24"
           style="fill:#265396;fill-opacity:1;stroke:none;stroke-opacity:1" /><path
           fill="#292c64"
           opacity="1"
           d="m 393.18,308.38 c 6,-2.97 12.08,-6 18.66,-7.45 0.7,1.77 1.49,3.51 2.31,5.24 -8.41,4 -17.22,7.14 -25.32,11.8 -16.13,8.55 -31.1,19.29 -44.42,31.79 -1.39,-1.69 -2.88,-3.3 -4.45,-4.8 6.13,-7.01 13.97,-12.11 21.32,-17.7 10.18,-7.01 20.73,-13.56 31.9,-18.88 z"
           id="path25"
           style="fill:#265396;fill-opacity:1;stroke:none;stroke-opacity:1" /><path
           fill="#292c64"
           opacity="1"
           d="m 287.9,328.81 c 6.28,-8.99 13.77,-17.07 21.41,-24.9 1.57,1.24 3.05,2.58 4.5,3.97 -7.73,7.68 -14.3,16.39 -21.6,24.45 -1.3,-1.34 -2.74,-2.53 -4.31,-3.52 z"
           id="path26"
           style="fill:#265396;fill-opacity:1;stroke:none;stroke-opacity:1" /><path
           fill="#292c64"
           opacity="1"
           d="m 572.73,311.17 c 1.04,-1.89 2.05,-3.79 3.01,-5.73 3.85,1.2 7.78,2.51 10.96,5.09 -1.26,1.83 -2.5,3.67 -3.75,5.5 -3.47,-1.48 -6.93,-3.01 -10.22,-4.86 z"
           id="path27"
           style="fill:#265396;fill-opacity:1;stroke:none;stroke-opacity:1" /><path
           fill="#292c64"
           opacity="1"
           d="m 711.38,310.87 c 3.24,2.3 5.74,5.43 8.52,8.24 -1.96,1.94 -3.63,4.23 -5.9,5.82 -3.2,-2.32 -5.58,-5.63 -8.09,-8.65 1.89,-1.73 3.71,-3.54 5.47,-5.41 z"
           id="path28"
           style="fill:#265396;fill-opacity:1;stroke:none;stroke-opacity:1" /><path
           fill="#292c64"
           opacity="1"
           d="m 269.18,311.43 c 1.58,1.32 3.18,2.63 4.83,3.87 -6.89,10.41 -13.75,20.87 -19.85,31.78 -10.43,19.97 -19.25,40.9 -24.74,62.8 -5.14,18.77 -7.44,38.2 -8.57,57.59 -2.08,-0.13 -4.16,-0.26 -6.23,-0.4 0.44,-19.25 3.82,-38.3 8.51,-56.95 4.14,-15.91 9.14,-31.71 16.41,-46.5 4.94,-11.42 10.92,-22.37 17.19,-33.11 4.09,-6.4 8.43,-12.64 12.45,-19.08 z"
           id="path29"
           style="fill:#265396;fill-opacity:1;stroke:none;stroke-opacity:1" /><path
           fill="#292c64"
           opacity="1"
           d="m 419.94,323.05 c 17.54,-5.46 35.65,-9.68 54.08,-10.35 18.32,-0.98 36.55,2.25 54.13,7.18 19.24,5.85 37.5,15.13 53.1,27.88 13.84,11 25.16,25.02 33.37,40.67 4.2,8.4 8.41,16.86 10.81,25.99 5,18.67 8.18,38.39 4.64,57.62 -0.5,2.54 -1.38,5.03 -2.88,7.16 -0.97,1.92 -3.45,1.27 -5.18,1.7 -0.01,-5.05 2.28,-11.02 -1.4,-15.31 -2.18,-0.63 -4.57,0.15 -6.83,0.01 0.64,-5.51 2.17,-11.57 -0.65,-16.74 -2.2,-2.76 -5.44,-5.76 -9.25,-5.23 -3.8,1.44 -2.79,5.97 -2.24,9.07 -4.04,0.11 -6.52,-3.91 -6.32,-7.61 -0.03,-10.71 -2.87,-21.17 -6.55,-31.15 -6.74,-15.59 -16.31,-30.5 -30.21,-40.62 -13.36,-11.01 -29.48,-18.55 -46.44,-21.94 -9.5,-2.56 -19.36,-3.56 -29.18,-3.28 -15.65,-0.25 -31.28,2.65 -45.85,8.35 -7.5,2.65 -14.94,5.66 -21.65,10 -8.82,5.66 -17.92,11.09 -25.44,18.48 -32.21,28.31 -50.98,70.19 -54.31,112.63 -2.54,-0.16 -5.07,-0.32 -7.6,-0.48 0.03,-11.04 2.64,-21.88 5.23,-32.56 11.54,-46.9 44.24,-88.28 87.63,-109.67 29.03,-14.94 62.91,-20.57 95.11,-14.85 14.4,2.27 28.09,7.65 41.23,13.82 19.4,10.5 37.3,24.56 49.65,43.05 -10.41,-21.94 -26.34,-41.81 -47.36,-54.34 -13.86,-8.87 -29.61,-14.39 -45.64,-17.8 -27.77,-6.6 -56.98,-3.58 -84.02,4.82 -35.26,11.75 -66.45,34.97 -88.39,64.91 -15.86,20.85 -26.14,45.58 -31.81,71.05 -7.08,31.58 -4.93,64.72 3.21,95.88 5.09,17.14 11.4,34 20.17,49.64 17.4,35.12 45.92,63.78 78.67,84.86 -1.4,2.09 -2.84,4.15 -4.23,6.24 -7.08,-3.96 -13.39,-9.14 -20.1,-13.68 -24.35,-18.68 -47.03,-39.53 -67.71,-62.19 -10.24,-11.89 -20.32,-23.97 -28.63,-37.3 -3.52,-5.49 -7.13,-10.95 -9.74,-16.94 1.82,-0.94 3.6,-1.94 5.39,-2.94 13.4,25.84 33.15,48 55.31,66.67 -7.59,-8.5 -13.88,-18.03 -20.62,-27.2 -5.91,-9.4 -12.45,-18.4 -18.08,-27.97 -8.53,-15.92 -16.5,-32.38 -20.67,-50.05 -5.3,-22.58 -6.97,-46.12 -3.68,-69.12 2.17,0.07 4.35,0.29 6.41,1.03 -1.3,9.78 -2.24,19.65 -1.91,29.52 0.3,14.23 2.95,28.27 5.91,42.15 1.46,7.35 4.27,14.32 6.91,21.3 6.53,15.34 14.14,30.41 24.51,43.55 -11.54,-23.54 -19.47,-48.93 -22.82,-74.94 -4.63,-36.71 1.74,-74.8 18.17,-107.96 7.41,-15.1 17.31,-28.86 28.22,-41.61 14.22,-15.72 30.64,-29.8 49.68,-39.36 8.32,-4.62 17.01,-8.53 25.85,-12.04 z"
           id="path30"
           style="fill:#265396;fill-opacity:1;stroke:none;stroke-opacity:1" /><path
           fill="#292c64"
           opacity="1"
           d="m 589.58,319.1 c 1.04,-1.93 2.06,-3.87 3.09,-5.8 7.03,3.29 13.81,7.27 20.26,11.61 -1.06,2.03 -2.53,3.79 -3.96,5.56 -6.31,-4.05 -13.14,-7.27 -19.39,-11.37 z"
           id="path31"
           style="fill:#265396;fill-opacity:1;stroke:none;stroke-opacity:1" /><path
           fill="#292c64"
           opacity="1"
           d="m 762,322.07 c 2.52,-1.43 4.44,-3.79 7,-5.09 5.1,7.09 10.15,14.22 14.96,21.51 -2.32,1.81 -4.26,4.31 -6.97,5.51 -5.09,-7.24 -10.05,-14.58 -14.99,-21.93 z"
           id="path32"
           style="fill:#265396;fill-opacity:1;stroke:none;stroke-opacity:1" /><path
           fill="#292c64"
           opacity="1"
           d="m 719.56,331.87 c 2.18,-1.62 4.36,-3.26 6.48,-4.97 6.16,7.92 13.2,15.27 18.25,24 -2.27,1.35 -4.31,3.43 -7,3.85 -6.13,-7.42 -11.03,-15.88 -17.73,-22.88 z"
           id="path33"
           style="fill:#265396;fill-opacity:1;stroke:none;stroke-opacity:1" /><path
           fill="#292c64"
           opacity="1"
           d="m 614.1,334.05 c 1.09,-2.12 2.54,-4.04 3.87,-6.01 4.85,3.22 10.2,6.14 13.85,10.79 -1.54,1.69 -3.09,3.37 -4.7,4.99 -4.42,-3.14 -8.88,-6.29 -13.02,-9.77 z"
           id="path34"
           style="fill:#265396;fill-opacity:1;stroke:none;stroke-opacity:1" /><path
           fill="#292c64"
           opacity="1"
           d="m 240.86,332.03 c -8.82,14.05 -16.58,28.79 -22.61,44.27 -6.25,16.06 -11.17,32.62 -15.34,49.33 -1.84,-0.51 -3.67,-1.06 -5.5,-1.58 2.9,-13.14 7.41,-25.87 12.31,-38.39 8.41,-18.9 17.4,-37.94 31.14,-53.63 z"
           id="path35"
           style="fill:#265396;fill-opacity:1;stroke:none;stroke-opacity:1" /><path
           fill="#292c64"
           opacity="1"
           d="m 241.4,429.15 c 6.67,-35.08 22.11,-68.34 43.77,-96.68 1.08,1.49 2.34,2.83 3.81,3.95 -1.34,2.99 -3.46,5.52 -5.32,8.2 -17.27,25.87 -30.24,54.78 -36.75,85.26 -1.85,-0.21 -3.68,-0.47 -5.51,-0.73 z"
           id="path36"
           style="fill:#265396;fill-opacity:1;stroke:none;stroke-opacity:1" /><path
           fill="#292c64"
           opacity="1"
           d="m 676.54,341.18 c 2.09,-1.94 4.1,-3.97 6.16,-5.95 3.2,3.57 6.42,7.13 9.45,10.84 -2.1,1.97 -4.31,3.82 -6.48,5.7 -2.94,-3.62 -6.02,-7.12 -9.13,-10.59 z"
           id="path37"
           style="fill:#265396;fill-opacity:1;stroke:none;stroke-opacity:1" /><path
           fill="#292c64"
           opacity="1"
           d="m 631,347.08 c 1.76,-1.62 2.92,-5.6 5.79,-4.74 7.15,5.44 13.01,12.33 19.31,18.68 -1.75,1.51 -3.46,3.06 -5.13,4.65 -6.46,-6.41 -13.47,-12.23 -19.97,-18.59 z"
           id="path38"
           style="fill:#265396;fill-opacity:1;stroke:none;stroke-opacity:1" /><path
           fill="#292c64"
           opacity="1"
           d="m 780.05,348.87 c 2.46,-1.66 4.78,-3.51 7,-5.47 2.37,3.89 4.63,7.85 6.63,11.95 -2.21,1.69 -4.57,3.18 -7,4.53 -2.62,-3.42 -4.28,-7.42 -6.63,-11.01 z"
           id="path39"
           style="fill:#265396;fill-opacity:1;stroke:none;stroke-opacity:1" /><path
           fill="#292c64"
           opacity="1"
           d="m 334.32,350.1 c 1.72,1.57 3.48,3.1 5.32,4.55 -5.47,5.61 -10.54,11.58 -15.3,17.8 -1.8,2.45 -4.02,4.56 -6.57,6.22 -0.74,4.13 -3.09,7.73 -5.62,11 -1.53,-1.44 -3.15,-2.76 -4.9,-3.9 1.47,-4.04 4.73,-6.96 7.86,-9.72 0.28,-2.32 1.11,-4.55 2.64,-6.34 5.38,-6.65 10.87,-13.22 16.57,-19.61 z"
           id="path40"
           style="fill:#265396;fill-opacity:1;stroke:none;stroke-opacity:1" /><path
           fill="#292c64"
           opacity="1"
           d="m 687.79,354.25 c 2.45,-1.64 4.89,-3.32 7.23,-5.13 1.85,2.36 3.76,4.66 5.69,6.95 -2.11,1.96 -4.31,3.83 -6.64,5.53 -2.13,-2.42 -4.35,-4.76 -6.28,-7.35 z"
           id="path41"
           style="fill:#265396;fill-opacity:1;stroke:none;stroke-opacity:1" /><path
           fill="#292c64"
           opacity="1"
           d="m 740.01,358.61 c 2.29,-1.49 4.32,-3.32 6.27,-5.22 1.39,1.76 2.63,3.63 3.73,5.59 4.46,7.99 9.12,15.88 12.95,24.2 -2.3,0.89 -4.49,2.06 -6.87,2.71 -2.39,-0.47 -2.67,-3.52 -3.7,-5.32 -3.89,-7.45 -8.7,-14.41 -12.38,-21.96 z"
           id="path42"
           style="fill:#265396;fill-opacity:1;stroke:none;stroke-opacity:1" /><path
           fill="#292c64"
           opacity="1"
           d="m 788.1,362.57 c 2.36,-1.36 4.71,-2.73 7.07,-4.1 1.75,2.56 3.33,5.24 4.76,8 -2.67,1.25 -5.09,2.94 -7.57,4.51 -1.47,-2.79 -2.94,-5.56 -4.26,-8.41 z"
           id="path43"
           style="fill:#265396;fill-opacity:1;stroke:none;stroke-opacity:1" /><path
           fill="#292c64"
           opacity="1"
           d="m 471.57,365.43 c 8.03,-1.64 16.13,-3.39 24.37,-3.25 12.74,-0.31 25.36,2.22 37.59,5.58 6.61,1.74 12.66,4.99 18.75,8.02 15.74,8.39 28.8,23.27 32.19,41.12 0.63,4.87 2.32,10.08 0.03,14.78 -1.4,-0.19 -3.27,0.4 -4.1,-1.11 -3.21,-5.32 -4.73,-11.52 -8.17,-16.73 -9.35,-15.04 -24.42,-25.64 -40.37,-32.74 -18.14,-7.42 -38.34,-10.56 -57.76,-7.26 -5.42,1.16 -10.83,2.36 -16.11,4.03 -18.62,7 -35.31,18.68 -48.84,33.2 -4.68,5.49 -9.32,11.03 -13.54,16.89 -1.96,-1.42 -3.91,-2.87 -5.88,-4.26 6.81,-10.91 16.12,-19.86 25.32,-28.71 16.3,-13.9 35.5,-24.81 56.52,-29.56 z"
           id="path44"
           style="fill:#265396;fill-opacity:1;stroke:none;stroke-opacity:1" /><path
           fill="#292c64"
           opacity="1"
           d="m 699.28,368.98 c 2.38,-1.64 4.56,-3.54 6.62,-5.57 7.75,11.68 15.14,23.64 21.04,36.39 2.92,5.71 5.07,11.77 7.97,17.5 -2.46,1.56 -5.02,3.11 -7.93,3.58 -6.88,-18.46 -17.21,-35.33 -27.7,-51.9 z"
           id="path45"
           style="fill:#265396;fill-opacity:1;stroke:none;stroke-opacity:1" /><path
           fill="#292c64"
           opacity="1"
           d="m 273.13,400.91 c 5.75,-12.7 12.01,-25.22 19.82,-36.8 1.62,1.25 3.31,2.41 5.12,3.39 -7.01,11.88 -14.44,23.61 -19.41,36.55 -1.88,-0.99 -3.7,-2.06 -5.53,-3.14 z"
           id="path46"
           style="fill:#265396;fill-opacity:1;stroke:none;stroke-opacity:1" /><path
           fill="#292c64"
           opacity="1"
           d="m 655.92,370.95 c 1.54,-1.47 3.1,-3.1 5.08,-3.96 7,7.43 13.08,15.73 18.16,24.58 -1.75,1.23 -3.48,2.48 -5.23,3.72 -5.63,-8.39 -12.01,-16.24 -18.01,-24.34 z"
           id="path47"
           style="fill:#265396;fill-opacity:1;stroke:none;stroke-opacity:1" /><path
           fill="#292c64"
           opacity="1"
           d="m 796.98,380.38 c 2.67,-1.26 5.31,-2.6 7.97,-3.89 3.62,8.66 7.46,17.24 10.77,26.03 4.81,14.32 9.38,28.77 11.92,43.7 -2.68,0.94 -5.38,1.79 -8.11,2.54 -4.39,-18.77 -10.02,-37.26 -17.2,-55.15 -1.9,-4.37 -3.67,-8.78 -5.35,-13.23 z"
           id="path48"
           style="fill:#265396;fill-opacity:1;stroke:none;stroke-opacity:1" /><path
           fill="#292c64"
           opacity="1"
           d="m 759.08,392.97 c 1.78,-1.86 4.2,-2.96 6.15,-4.64 1.93,1.8 2.81,4.29 3.45,6.78 -2.58,1.32 -5.17,2.63 -7.86,3.71 -0.79,-1.86 -1.99,-3.75 -1.74,-5.85 z"
           id="path49"
           style="fill:#265396;fill-opacity:1;stroke:none;stroke-opacity:1" /><path
           fill="#292c64"
           opacity="1"
           d="m 304.04,391.07 c 2.01,0.8 3.92,1.83 5.9,2.7 -6.5,10.83 -11.37,22.51 -15.94,34.26 -3.18,9.75 -5.79,19.67 -7.9,29.71 -1.99,-0.3 -4.01,-0.52 -5.9,-1.22 -0.23,-3.91 1.1,-7.73 1.83,-11.53 3.58,-18.28 11.57,-35.32 20.44,-51.56 0.42,-0.86 0.95,-1.65 1.57,-2.36 z"
           id="path50"
           style="fill:#265396;fill-opacity:1;stroke:none;stroke-opacity:1" /><path
           fill="#292c64"
           opacity="1"
           d="m 460.83,403.82 c 21.31,-11.35 46.63,-15.21 70.18,-9.42 10.58,3.19 21.38,7.22 29.23,15.34 3.24,3.68 7.2,7.4 8.04,12.45 -4.78,-5.04 -10.51,-9.07 -16.39,-12.72 -9.84,-4.79 -20.04,-9.34 -30.97,-10.85 -13.75,-1.34 -27.85,-0.34 -41.04,3.9 -6.7,2.46 -13.32,5.26 -19.56,8.73 -12.98,7.9 -24.58,18.07 -33.74,30.23 -14.18,19.33 -23.85,42.44 -25.36,66.52 -1.88,19.45 0.74,39.33 7.11,57.79 3.42,10.07 8.74,19.33 14.27,28.36 -2.05,1.44 -4.17,2.78 -6.38,3.98 -11.44,-17.82 -18.52,-38.23 -21.78,-59.1 -3.46,-25.67 -0.02,-52.42 11.03,-75.94 11.3,-25.04 30.42,-47.17 55.36,-59.27 z"
           id="path51"
           style="fill:#265396;fill-opacity:1;stroke:none;stroke-opacity:1" /><path
           fill="#292c64"
           opacity="1"
           d="m 677.3,401.58 c 1.78,-1.62 3.72,-3.05 5.68,-4.45 7.25,12.33 12.79,25.58 17.94,38.9 5.36,16.6 9.42,33.77 10.44,51.23 -2.36,0.05 -4.72,0.09 -7.06,0.15 -1.51,-20.07 -6.24,-39.92 -13.91,-58.53 -4.23,-9.16 -7.53,-18.82 -13.09,-27.3 z"
           id="path52"
           style="fill:#265396;fill-opacity:1;stroke:none;stroke-opacity:1" /><path
           fill="#292c64"
           opacity="1"
           d="m 763.01,403.85 c 2.35,-1.36 4.76,-2.63 7.18,-3.86 1.41,3.51 2.85,7 4.42,10.44 -2.44,1.46 -5.07,2.52 -7.78,3.34 -1.09,-3.38 -2.51,-6.63 -3.82,-9.92 z"
           id="path53"
           style="fill:#265396;fill-opacity:1;stroke:none;stroke-opacity:1" /><path
           fill="#292c64"
           opacity="1"
           d="m 269.67,409.11 c 1.73,1.16 3.47,2.31 5.27,3.38 -1.31,6.27 -4,12.15 -5.54,18.37 -5.12,17.86 -6.28,36.61 -5.81,55.1 0.36,19.82 4.55,39.45 11.33,58.03 2.11,2.82 -2.29,4.5 -4.41,4.68 -3.45,-7.64 -5.68,-15.78 -7.4,-23.96 -6.39,-26.05 -7.76,-53.43 -2.82,-79.84 1.9,-12.19 4.91,-24.25 9.38,-35.76 z"
           id="path54"
           style="fill:#265396;fill-opacity:1;stroke:none;stroke-opacity:1" /><path
           fill="#292c64"
           opacity="1"
           d="m 768.87,418.14 c 2.57,-0.56 5.05,-1.47 7.4,-2.65 2.31,7.23 4.61,14.47 6.88,21.72 -2.77,0.92 -5.59,1.63 -8.43,2.23 -1.36,-7.25 -4.11,-14.14 -5.85,-21.3 z"
           id="path55"
           style="fill:#265396;fill-opacity:1;stroke:none;stroke-opacity:1" /><path
           fill="#292c64"
           opacity="1"
           d="m 480.38,430.41 c 17.04,-8.37 36.86,-11.37 55.53,-7.64 20.92,3.74 40.41,16.99 50.09,36.13 0.98,1.79 1.78,4.14 4.01,4.71 1.86,-0.1 3.42,-1.39 5.1,-2.1 4.11,1.2 6.48,5.31 6.74,9.4 0.14,2.96 -0.13,5.93 -0.26,8.9 2.56,-0.15 4.96,-1.1 7.39,-1.84 2.74,4.99 2,11.02 0.77,16.35 -1.52,6.95 -6.96,12.78 -13.67,15 -1.72,0.07 -4.4,0.8 -5.01,-1.42 1.54,-5.36 5.56,-10.06 5.32,-15.89 -0.11,-4.42 -2.82,-9.77 -7.92,-9.52 -1.83,-9.52 -10.63,-16.8 -20.29,-16.94 1.6,3.68 3.91,7.25 3.63,11.45 0.54,3.71 -1.22,8.09 -5.18,8.97 0.14,-6.4 -2.65,-12.87 -7.83,-16.74 -7.16,-6.4 -17.36,-8.12 -26.64,-7.08 -14.16,0.91 -28.26,7.79 -36.24,19.78 -7.95,10.48 -10.42,24.11 -9.47,37 0.51,17.83 9.12,34.63 21.59,47.1 16.53,17.45 39.62,27.37 63.01,31.44 16.99,2.4 34.62,1.79 51.19,-2.83 0.9,2.38 1.8,4.78 2.5,7.24 -21.44,5.52 -44.35,6.24 -65.74,0.09 -24.64,-6.24 -48,-20.19 -62.83,-41.14 -8.87,-12.11 -13.24,-26.96 -14.66,-41.76 -0.92,-13.09 1.97,-26.58 8.6,-37.94 13.27,-21.68 40.3,-32.48 65.06,-29.39 7.79,1.27 15.5,3.42 22.52,7.08 -2.65,-6.35 -6.46,-12.34 -12.06,-16.48 -12.95,-9.77 -29.48,-14.15 -45.57,-13.74 -11.6,0 -23.2,2.79 -33.52,8.07 -16.47,7.28 -29.5,20.82 -38.73,36.05 -6.72,11.73 -11.18,24.8 -12.89,38.22 -1.14,17.58 0.6,35.52 6.59,52.17 6.47,18.51 17.64,35.18 31.41,49.06 13.63,12.99 29.59,23.49 46.82,31.07 13.2,5.84 27.01,10.58 41.25,13.09 -0.35,2.21 -0.77,4.42 -1.37,6.59 -19.82,-3.61 -39.16,-10.14 -57.02,-19.49 -15.94,-9.08 -30.92,-20.16 -43.12,-33.93 -11.33,-12.73 -19.86,-27.78 -26.01,-43.63 -7.14,-19.53 -9.11,-40.87 -5.74,-61.39 3.28,-18.98 11.34,-37.22 23.84,-51.93 8.04,-9.21 18.22,-16.19 28.81,-22.14 z"
           id="path56"
           style="fill:#265396;fill-opacity:1;stroke:none;stroke-opacity:1" /><path
           fill="#292c64"
           opacity="1"
           d="m 730.07,427.04 c 2.47,-0.92 4.93,-1.89 7.33,-3.01 5.12,13.56 8.81,27.68 11.01,42 -2.5,0.35 -4.96,0.89 -7.46,1.14 -2.84,-13.57 -6.44,-26.98 -10.88,-40.13 z"
           id="path57"
           style="fill:#265396;fill-opacity:1;stroke:none;stroke-opacity:1" /><path
           fill="#292c64"
           opacity="1"
           d="m 194.41,435.96 c 0.73,-3.08 1.48,-6.15 2.39,-9.17 1.85,0.65 3.69,1.31 5.55,1.96 -0.66,3.03 -1.31,6.07 -1.87,9.12 -2.01,-0.68 -4.02,-1.35 -6.07,-1.91 z"
           id="path58"
           style="fill:#265396;fill-opacity:1;stroke:none;stroke-opacity:1" /><path
           fill="#292c64"
           opacity="1"
           d="m 372.12,456.44 c 4,-9.58 8.05,-19.41 14.68,-27.52 1.68,1.5 3.47,2.88 5.33,4.17 -2.39,4.87 -5.36,9.43 -7.76,14.3 -2.11,4.06 -3.64,8.4 -6,12.33 -2.05,-1.16 -4.15,-2.23 -6.25,-3.28 z"
           id="path59"
           style="fill:#265396;fill-opacity:1;stroke:none;stroke-opacity:1" /><path
           fill="#292c64"
           opacity="1"
           d="m 240.45,431.97 c 2.06,0.22 4.09,0.7 5.95,1.65 -0.67,3.26 -1.15,6.61 -2.45,9.71 -1.49,0.19 -3.93,0.79 -4.72,-0.91 -0.03,-3.52 0.7,-6.99 1.22,-10.45 z"
           id="path60"
           style="fill:#265396;fill-opacity:1;stroke:none;stroke-opacity:1" /><path
           fill="#292c64"
           opacity="1"
           d="m 191.48,449.57 c 0.7,-2.72 1.3,-5.46 1.96,-8.19 2.05,0.66 4.15,1.15 6.29,1.39 -0.42,2.68 -0.88,5.37 -1.3,8.06 -2.36,-0.16 -4.74,-0.37 -6.95,-1.26 z"
           id="path61"
           style="fill:#265396;fill-opacity:1;stroke:none;stroke-opacity:1" /><path
           fill="#292c64"
           opacity="1"
           d="m 777,446.45 c 2.6,-0.54 5.14,-1.27 7.65,-2.16 2.66,11.43 4.59,23.09 5.59,34.8 -2.8,0.25 -5.59,0.57 -8.37,0.86 -0.46,-11.33 -3.26,-22.33 -4.87,-33.5 z"
           id="path62"
           style="fill:#265396;fill-opacity:1;stroke:none;stroke-opacity:1" /><path
           fill="#292c64"
           opacity="1"
           d="m 238.01,445.37 c 1.96,-0.08 3.92,-0.1 5.88,-0.08 -1.37,16.52 -2.69,33.18 -0.81,49.72 0.35,2.87 0.58,5.76 0.72,8.66 -2.04,-0.06 -4.08,-0.12 -6.12,-0.15 -1.58,-12.7 -1.74,-25.52 -1.4,-38.3 0.54,-6.62 1.25,-13.22 1.73,-19.85 z"
           id="path63"
           style="fill:#265396;fill-opacity:1;stroke:none;stroke-opacity:1" /><path
           fill="#292c64"
           opacity="1"
           d="m 190.15,463.87 c 0.21,-3.46 0.52,-6.92 1.31,-10.3 2.1,0.4 4.2,0.78 6.31,1.13 -0.24,3.4 -0.72,6.77 -1.21,10.14 -2.14,-0.32 -4.28,-0.63 -6.41,-0.97 z"
           id="path64"
           style="fill:#265396;fill-opacity:1;stroke:none;stroke-opacity:1" /><path
           fill="#292c64"
           opacity="1"
           d="m 821.53,458.5 c 2.67,-0.61 5.38,-1.09 8.1,-1.55 0.41,2.52 0.81,5.04 1.22,7.57 -2.75,0.57 -5.51,1.06 -8.2,1.85 -0.36,-2.63 -0.73,-5.25 -1.12,-7.87 z"
           id="path65"
           style="fill:#265396;fill-opacity:1;stroke:none;stroke-opacity:1" /><path
           fill="#292c64"
           opacity="1"
           d="m 361.54,497.31 c 0.94,-11.71 4.21,-23.12 8.12,-34.15 2.23,1.04 4.49,2.04 6.88,2.7 -3.96,10.22 -5.92,21.03 -7.3,31.86 -2.57,-0.13 -5.14,-0.27 -7.7,-0.41 z"
           id="path66"
           style="fill:#265396;fill-opacity:1;stroke:none;stroke-opacity:1" /><path
           fill="#292c64"
           opacity="1"
           d="m 189.17,468.28 c 2.41,0.37 4.81,0.81 7.22,1.15 0,4.11 -0.35,8.21 -0.76,12.3 -2.39,-0.27 -4.77,-0.51 -7.16,-0.66 -0.12,-4.28 0.34,-8.54 0.7,-12.79 z"
           id="path67"
           style="fill:#265396;fill-opacity:1;stroke:none;stroke-opacity:1" /><path
           fill="#292c64"
           opacity="1"
           d="m 823.08,470.5 c 2.79,-0.56 5.61,-1.06 8.37,-1.83 1.38,6.42 1.62,13.02 2.18,19.55 -2.96,0.26 -5.91,0.5 -8.86,0.8 -0.53,-6.18 -0.81,-12.38 -1.69,-18.52 z"
           id="path68"
           style="fill:#265396;fill-opacity:1;stroke:none;stroke-opacity:1" /><path
           fill="#292c64"
           opacity="1"
           d="m 214.57,471.23 c 2.1,0.19 4.21,0.37 6.31,0.57 -0.13,2.67 -0.19,5.34 -0.27,8.02 -2.13,-0.1 -4.25,-0.2 -6.37,-0.3 0.09,-2.77 0.22,-5.53 0.33,-8.29 z"
           id="path69"
           style="fill:#265396;fill-opacity:1;stroke:none;stroke-opacity:1" /><path
           fill="#292c64"
           opacity="1"
           d="m 742.17,473.91 c 2.58,-0.35 5.19,-0.6 7.81,-0.63 0.45,5.93 1.34,11.84 1.36,17.8 -2.63,0.09 -5.27,0.17 -7.9,0.2 -0.43,-5.79 -1.09,-11.56 -1.27,-17.37 z"
           id="path70"
           style="fill:#265396;fill-opacity:1;stroke:none;stroke-opacity:1" /><path
           fill="#292c64"
           opacity="1"
           d="m 214.41,485.35 c 2.11,-0.03 4.22,-0.1 6.34,-0.2 0.05,3.11 0.11,6.22 0.13,9.33 -2.16,0.08 -4.31,0.18 -6.47,0.27 0.02,-3.14 0.04,-6.27 0,-9.4 z"
           id="path71"
           style="fill:#265396;fill-opacity:1;stroke:none;stroke-opacity:1" /><path
           fill="#292c64"
           opacity="1"
           d="m 187.72,490.1 c 2.63,0.15 5.25,0.35 7.89,0.47 0.02,39.1 6.75,78.19 20.17,114.93 3.67,10.75 8.65,20.97 13.15,31.39 -2.81,1.77 -5.6,3.57 -8.4,5.35 -7.81,-16.97 -14.57,-34.45 -19.9,-52.36 -8.9,-32.45 -13.55,-66.11 -12.91,-99.78 z"
           id="path72"
           style="fill:#265396;fill-opacity:1;stroke:none;stroke-opacity:1" /><path
           fill="#292c64"
           opacity="1"
           d="m 459.37,498.58 c 0.92,-2.38 1.87,-4.91 3.96,-6.52 -1.8,9.17 -2.68,18.53 -2.54,27.89 1.1,20.53 6.56,41.41 19.06,58.06 9.84,14.38 23.12,26.14 38.02,35.06 -1.13,1.97 -2.32,3.91 -3.51,5.86 -16.08,-8.57 -29.38,-21.67 -40.13,-36.24 -10.53,-15.26 -17,-33.33 -18.36,-51.83 -0.64,-10.83 -0.27,-21.99 3.5,-32.28 z"
           id="path73"
           style="fill:#265396;fill-opacity:1;stroke:none;stroke-opacity:1" /><path
           fill="#292c64"
           opacity="1"
           d="m 783.37,492.93 c 2.68,-0.15 5.36,-0.24 8.05,-0.4 0.19,3.35 0.35,6.71 0.34,10.08 -2.78,0.1 -5.56,0.16 -8.33,0.21 -0.01,-3.3 -0.01,-6.6 -0.06,-9.89 z"
           id="path74"
           style="fill:#265396;fill-opacity:1;stroke:none;stroke-opacity:1" /><path
           fill="#292c64"
           opacity="1"
           d="m 825.37,496.72 c 3.01,-0.11 6.02,-0.28 9.03,-0.5 0.95,20.92 0.36,41.98 -2.96,62.69 -2.57,16.35 -5.94,32.62 -11.19,48.34 -3.38,12.21 -8.73,23.73 -13.63,35.38 -5.12,11.71 -11.5,22.78 -17.53,34.03 -1.85,-1.3 -3.71,-2.58 -5.59,-3.82 8.15,-12.97 14.28,-27.06 20.28,-41.11 4.77,-11.9 9.07,-24.05 11.82,-36.58 8.71,-31.97 11.24,-65.41 9.77,-98.43 z"
           id="path75"
           style="fill:#265396;fill-opacity:1;stroke:none;stroke-opacity:1" /><path
           fill="#292c64"
           opacity="1"
           d="m 743.6,496.7 c 2.62,0.13 5.24,0.19 7.88,0.18 -0.06,4.56 -0.04,9.13 -0.09,13.69 -2.62,-0.18 -5.24,-0.33 -7.85,-0.48 -0.09,-4.46 0.07,-8.93 0.06,-13.39 z"
           id="path76"
           style="fill:#265396;fill-opacity:1;stroke:none;stroke-opacity:1" /><path
           fill="#292c64"
           opacity="1"
           d="m 703.92,498.22 c 2.44,0.21 4.88,0.41 7.33,0.55 -0.4,2.73 -0.74,5.48 -1.09,8.23 -2.23,-0.29 -4.44,-0.54 -6.66,-0.77 0.15,-2.67 0.29,-5.34 0.42,-8.01 z"
           id="path77"
           style="fill:#265396;fill-opacity:1;stroke:none;stroke-opacity:1" /><path
           fill="#292c64"
           opacity="1"
           d="m 215.27,500.76 c 2.04,-0.16 4.07,-0.36 6.11,-0.57 1.02,9.97 1.87,19.98 3.57,29.86 0.87,5.4 2.74,10.63 2.85,16.15 -2.03,0.59 -4.03,1.27 -6.01,2 -3.57,-15.57 -6.62,-31.41 -6.52,-47.44 z"
           id="path78"
           style="fill:#265396;fill-opacity:1;stroke:none;stroke-opacity:1" /><path
           fill="#292c64"
           opacity="1"
           d="m 327.98,500.35 c 2.51,0.14 5.02,0.21 7.53,0.19 -0.13,2.37 -0.21,4.74 -0.23,7.12 -2.58,-0.03 -5.17,0.05 -7.75,0.24 0.11,-2.53 0.24,-5.05 0.45,-7.55 z"
           id="path79"
           style="fill:#265396;fill-opacity:1;stroke:none;stroke-opacity:1" /><path
           fill="#292c64"
           opacity="1"
           d="m 361.12,500.24 c 2.52,0.2 5.04,0.39 7.57,0.54 -0.07,2.35 -0.14,4.72 -0.2,7.08 -2.75,-0.08 -5.5,-0.12 -8.25,-0.09 0.28,-2.52 0.54,-5.03 0.88,-7.53 z"
           id="path80"
           style="fill:#265396;fill-opacity:1;stroke:none;stroke-opacity:1" /><path
           fill="#292c64"
           opacity="1"
           d="m 238.4,508.42 c 1.94,-0.5 3.91,-0.84 5.9,-1.05 0.55,3.29 1.12,6.58 1.38,9.91 -2.01,0.16 -4.03,0.28 -6.04,0.35 -0.42,-3.07 -0.83,-6.15 -1.24,-9.21 z"
           id="path81"
           style="fill:#265396;fill-opacity:1;stroke:none;stroke-opacity:1" /><path
           fill="#292c64"
           opacity="1"
           d="m 702.73,510.11 c 2.09,0.43 4.16,0.93 6.25,1.43 -0.75,7.91 -3.54,15.48 -6.29,22.88 -6.06,12.98 -13.29,25.93 -23.91,35.72 -1.98,-0.67 -3.18,-2.8 -4.76,-4.13 6.38,-7.05 12.6,-14.39 17.14,-22.79 5.96,-10.16 9.17,-21.65 11.57,-33.11 z"
           id="path82"
           style="fill:#265396;fill-opacity:1;stroke:none;stroke-opacity:1" /><path
           fill="#292c64"
           opacity="1"
           d="m 783.67,512.2 c 2.55,0.08 5.11,0.15 7.67,0.26 -0.89,24.56 -3.85,49.41 -12.37,72.6 -2.11,-0.69 -4.17,-1.5 -6.23,-2.25 7.26,-22.8 10.98,-46.68 10.93,-70.61 z"
           id="path83"
           style="fill:#265396;fill-opacity:1;stroke:none;stroke-opacity:1" /><path
           fill="#292c64"
           opacity="1"
           d="m 360.31,522.45 c -0.33,-3.26 -0.28,-6.54 0.14,-9.78 2.43,0.76 4.96,1.04 7.5,0.93 0.31,2.83 0.32,5.68 0.2,8.53 -2.61,0.07 -5.23,0.17 -7.84,0.32 z"
           id="path84"
           style="fill:#265396;fill-opacity:1;stroke:none;stroke-opacity:1" /><path
           fill="#292c64"
           opacity="1"
           d="m 327.65,513.23 c 2.63,0.04 5.27,-0.01 7.9,-0.1 -0.02,1.98 -0.04,3.97 -0.07,5.97 -2.59,0.15 -5.17,0.34 -7.75,0.56 -0.02,-2.15 -0.04,-4.3 -0.08,-6.43 z"
           id="path85"
           style="fill:#265396;fill-opacity:1;stroke:none;stroke-opacity:1" /><path
           fill="#292c64"
           opacity="1"
           d="m 743.41,517.35 c 2.35,0.14 4.72,0.3 7.03,0.85 -0.5,4.89 -0.67,9.83 -1.56,14.67 -2.11,10.23 -4.04,20.56 -7.69,30.38 -3.01,7.99 -6.48,15.82 -10.58,23.32 -3.02,5.63 -5.98,11.4 -10.2,16.25 -1.59,-1.01 -3.18,-1.97 -4.79,-2.89 2.24,-4.74 5.73,-8.73 8.15,-13.37 8.93,-16.41 15.37,-34.31 17.82,-52.87 0.79,-5.42 1.38,-10.88 1.82,-16.34 z"
           id="path86"
           style="fill:#265396;fill-opacity:1;stroke:none;stroke-opacity:1" /><path
           fill="#292c64"
           opacity="1"
           d="m 240.46,520.46 c 2,-0.38 4,-0.74 6.01,-1.06 0.79,3.41 1.42,6.86 2.2,10.29 -1.99,0.7 -3.99,1.36 -5.99,2.03 -0.91,-3.72 -1.94,-7.43 -2.22,-11.26 z"
           id="path87"
           style="fill:#265396;fill-opacity:1;stroke:none;stroke-opacity:1" /><path
           fill="#292c64"
           opacity="1"
           d="m 804.4,523.08 c 1.35,6.52 0.99,13.25 0.73,19.86 -0.73,14.5 -2.41,29.03 -6.17,43.07 -8.74,30.44 -23.13,59.83 -45.15,82.89 -24.58,26.31 -57.04,44.37 -91.19,55.06 -0.47,-1.81 -1.01,-3.6 -1.46,-5.38 15.48,-5.25 30.94,-11.03 45,-19.47 14.57,-8.17 28.11,-18.19 39.97,-29.96 21.09,-21.08 36.11,-47.62 46.16,-75.55 6.8,-20.26 10.45,-41.43 12.22,-62.68 0.24,-2.62 0.13,-5.24 -0.11,-7.84 z"
           id="path88"
           style="fill:#265396;fill-opacity:1;stroke:none;stroke-opacity:1" /><path
           fill="#292c64"
           opacity="1"
           d="m 360.63,525.75 c 2.6,-0.09 5.2,-0.18 7.81,-0.21 0.55,5.66 0.94,11.34 1.49,17 -2.47,0.45 -4.94,0.94 -7.4,1.43 -1.41,-5.96 -1.48,-12.14 -1.9,-18.22 z"
           id="path89"
           style="fill:#265396;fill-opacity:1;stroke:none;stroke-opacity:1" /><path
           fill="#292c64"
           opacity="1"
           d="m 328.47,527.78 c 2.47,-0.2 4.94,-0.45 7.42,-0.66 1.3,14.02 4.22,27.89 8.58,41.28 2.66,8.14 6.94,15.65 9.48,23.83 -2.22,0.42 -3.52,2.31 -5.05,3.76 -9.38,-16.67 -15.03,-35.21 -18.66,-53.93 -0.95,-4.71 -1.46,-9.49 -1.77,-14.28 z"
           id="path90"
           style="fill:#265396;fill-opacity:1;stroke:none;stroke-opacity:1" /><path
           fill="#292c64"
           opacity="1"
           d="m 763.35,536.94 c 0.23,-1.91 -0.81,-4.52 1.25,-5.71 -0.4,24.11 -6.12,48.35 -17.78,69.55 -6.16,12.79 -15.15,23.95 -24.79,34.27 -9.38,10.15 -20.43,18.62 -32.05,26.05 -16.72,10.22 -34.81,18.5 -54.02,22.73 -17.04,4.27 -34.71,5.74 -52.24,4.8 0.33,-2.12 0.58,-4.23 0.75,-6.35 19.7,0.34 39.64,-1.13 58.47,-7.27 18.16,-4.51 34.93,-13.3 50.45,-23.58 38.09,-26.01 64.05,-68.81 69.96,-114.49 z"
           id="path91"
           style="fill:#265396;fill-opacity:1;stroke:none;stroke-opacity:1" /><path
           fill="#292c64"
           opacity="1"
           d="m 244.78,539.86 c 2.02,-0.75 4.05,-1.44 6.13,-1.99 6.39,22.63 15.07,44.74 27.24,64.93 6.54,11.54 14.49,22.19 21.84,33.2 -1.74,1.77 -4.14,2.75 -6.14,4.21 -11.64,-15.3 -21.87,-31.72 -30.05,-49.14 -7.88,-16.42 -14.73,-33.46 -19.02,-51.21 z"
           id="path92"
           style="fill:#265396;fill-opacity:1;stroke:none;stroke-opacity:1" /><path
           fill="#292c64"
           opacity="1"
           d="m 694.47,587.67 c 10.87,-14.78 20.45,-30.65 26.76,-47.96 -0.48,8.04 -3.28,15.72 -5.66,23.34 -4.05,10.06 -8.82,20.15 -16.29,28.15 -1.56,-1.24 -3.17,-2.42 -4.81,-3.53 z"
           id="path93"
           style="fill:#265396;fill-opacity:1;stroke:none;stroke-opacity:1" /><path
           fill="#292c64"
           opacity="1"
           d="m 363.07,546.3 c 2.43,-0.55 4.85,-1.15 7.2,-1.98 0.45,2.41 0.9,4.84 1.38,7.27 -2.33,0.4 -4.65,0.84 -6.92,1.52 -0.88,-2.19 -1.36,-4.49 -1.66,-6.81 z"
           id="path94"
           style="fill:#265396;fill-opacity:1;stroke:none;stroke-opacity:1" /><path
           fill="#292c64"
           opacity="1"
           d="m 223.3,553.01 c 2.12,-0.59 4.22,-1.28 6.33,-1.95 5.82,19.14 11.92,38.33 20.92,56.25 -2.29,1.04 -4.52,3.48 -7.06,3.27 -2.31,-3.33 -3.61,-7.21 -5.23,-10.88 -3.72,-9.06 -7.25,-18.21 -9.93,-27.63 -1.84,-6.31 -4.14,-12.52 -5.03,-19.06 z"
           id="path95"
           style="fill:#265396;fill-opacity:1;stroke:none;stroke-opacity:1" /><path
           fill="#292c64"
           opacity="1"
           d="m 277.11,562.95 c -2.24,-3.15 -3.52,-6.8 -4.78,-10.4 1.88,1.04 3.74,-0.42 5.52,-1.01 1.77,2.99 3.3,6.12 4.48,9.4 -1.74,0.66 -3.48,1.34 -5.22,2.01 z"
           id="path96"
           style="fill:#265396;fill-opacity:1;stroke:none;stroke-opacity:1" /><path
           fill="#292c64"
           opacity="1"
           d="m 365.37,557.53 c 2.46,-0.86 4.98,-1.55 7.54,-2.04 0.44,2.27 0.97,4.55 1.61,6.78 -2.37,0.71 -4.71,1.5 -7,2.43 -0.81,-2.36 -1.46,-4.78 -2.15,-7.17 z"
           id="path97"
           style="fill:#265396;fill-opacity:1;stroke:none;stroke-opacity:1" /><path
           fill="#292c64"
           opacity="1"
           d="m 370.3,572.58 c 2.31,-0.8 4.6,-1.64 6.9,-2.48 5.56,13.71 11.71,27.28 20.14,39.51 15.82,22.9 36.9,41.89 60.43,56.62 22.23,14.34 46.77,25.18 72.43,31.67 21.67,5.99 44.3,7.91 66.72,7.33 22.56,-0.56 45,-4.67 66.32,-12.05 9.26,-3.36 18.53,-6.89 27,-11.98 21.84,-11.32 41.39,-27.34 55.9,-47.27 1.89,1.22 3.76,2.51 5.62,3.79 -9.56,13.23 -21.91,24.15 -34.77,34.09 -22.22,16.39 -48.04,27.7 -74.94,33.77 -38.03,9.61 -78.52,7.79 -116.18,-2.64 -31.73,-9.26 -62.4,-23.06 -88.84,-43.07 -12.59,-9.94 -24.77,-20.52 -35.09,-32.86 -13.64,-16.09 -24.49,-34.6 -31.64,-54.43 z"
           id="path98"
           style="fill:#265396;fill-opacity:1;stroke:none;stroke-opacity:1" /><path
           fill="#292c64"
           opacity="1"
           d="m 645.08,586.08 c 7.12,-3.49 13.69,-7.95 20.42,-12.12 1.28,1.62 2.65,3.17 4.07,4.69 -11.73,9.44 -25.27,16.71 -39.58,21.35 -0.94,-2.18 -1.94,-4.33 -2.92,-6.48 6.07,-2.31 12.28,-4.34 18.01,-7.44 z"
           id="path99"
           style="fill:#265396;fill-opacity:1;stroke:none;stroke-opacity:1" /><path
           fill="#292c64"
           opacity="1"
           d="m 771.09,587.58 c 1.89,1.03 3.78,2.07 5.7,3.07 -2.15,7.92 -6.2,15.09 -9.81,22.39 -3.65,6.91 -7.62,13.66 -12.08,20.08 -1.75,-1.39 -3.55,-2.72 -5.4,-3.96 5.37,-7.4 9.86,-15.4 13.81,-23.63 2.81,-5.89 4.79,-12.15 7.78,-17.95 z"
           id="path100"
           style="fill:#265396;fill-opacity:1;stroke:none;stroke-opacity:1" /><path
           fill="#292c64"
           opacity="1"
           d="m 671.32,608.41 c 6.94,-5.38 13.66,-11.06 19.94,-17.21 1.64,1.38 3.27,2.78 4.93,4.16 -5.88,7.01 -12.83,13.16 -20.35,18.38 -1.31,-1.95 -2.81,-3.74 -4.52,-5.33 z"
           id="path101"
           style="fill:#265396;fill-opacity:1;stroke:none;stroke-opacity:1" /><path
           fill="#292c64"
           opacity="1"
           d="m 350.16,598.62 c 1.92,-1.22 3.87,-2.41 5.87,-3.48 14.69,27.26 35.55,50.98 59.86,70.07 25.41,20.26 54.67,35.3 85.15,46.33 32.08,11.34 66.08,17.25 100.13,16.73 0.15,2.04 0.36,4.09 0.61,6.14 -20.88,0.25 -41.85,-1.44 -62.29,-5.78 -20.03,-3.31 -39,-10.79 -57.88,-17.99 -12.2,-4.65 -23.56,-11.11 -35.15,-17.05 -24.19,-14.28 -47.16,-31.1 -66.11,-51.95 -10.32,-11.63 -20.31,-23.93 -27.16,-37.96 -1.26,-1.54 -2.37,-3.19 -3.03,-5.06 z"
           id="path102"
           style="fill:#265396;fill-opacity:1;stroke:none;stroke-opacity:1" /><path
           fill="#292c64"
           opacity="1"
           d="m 419.66,602.91 c 2.01,-1.4 4.01,-2.83 6.07,-4.17 9.59,12.75 19.73,25.31 32.23,35.36 15.57,12.43 32.72,22.99 51.18,30.57 14.66,6.43 30.27,10.3 45.81,13.94 -0.36,2.04 -0.64,4.15 -1.56,6.05 -2.93,0.53 -5.92,-1.08 -8.83,-1.53 -21.35,-4.92 -42,-12.81 -61.18,-23.41 -25.22,-13.67 -47.76,-32.85 -63.72,-56.81 z"
           id="path103"
           style="fill:#265396;fill-opacity:1;stroke:none;stroke-opacity:1" /><path
           fill="#292c64"
           opacity="1"
           d="m 702.52,615.55 c 3.41,-3.05 5.84,-7 9.24,-10.05 1.35,1.16 2.72,2.3 4.12,3.43 -23.55,29.59 -58.86,48.69 -95.91,54.99 -11.42,1.81 -23.01,2.56 -34.56,2.21 0.15,-2.3 0.32,-4.6 0.53,-6.88 24.9,0.81 50.04,-3.44 72.89,-13.5 16.1,-7.52 31.36,-17.29 43.69,-30.2 z"
           id="path104"
           style="fill:#265396;fill-opacity:1;stroke:none;stroke-opacity:1" /><path
           fill="#292c64"
           opacity="1"
           d="m 245.55,614.99 c 2.18,-1.32 4.36,-2.64 6.56,-3.92 1.58,3.31 3.45,6.47 5.24,9.67 -2.38,1.08 -4.66,2.36 -6.83,3.82 -1.97,-3.02 -3.43,-6.32 -4.97,-9.57 z"
           id="path105"
           style="fill:#265396;fill-opacity:1;stroke:none;stroke-opacity:1" /><path
           fill="#292c64"
           opacity="1"
           d="m 550.6,627.3 c 37.61,10.66 79.81,6.25 113.54,-13.9 1.44,1.84 2.82,3.74 4.16,5.68 -16.81,10.78 -36.17,17.19 -55.85,20.07 -21.49,2.71 -43.54,1.06 -64.41,-4.72 0.76,-2.41 1.61,-4.79 2.56,-7.13 z"
           id="path106"
           style="fill:#265396;fill-opacity:1;stroke:none;stroke-opacity:1" /><path
           fill="#292c64"
           opacity="1"
           d="m 521.13,623.25 c 1.39,-2.13 2.82,-4.23 4.54,-6.1 1.93,1.2 3.93,2.31 5.9,3.46 -1.29,2 -2.49,4.06 -3.62,6.17 -2.29,-1.15 -4.57,-2.32 -6.82,-3.53 z"
           id="path107"
           style="fill:#265396;fill-opacity:1;stroke:none;stroke-opacity:1" /><path
           fill="#292c64"
           opacity="1"
           d="m 535.69,622.15 c 3.28,1.63 6.86,2.48 10.38,3.42 -1.07,2.44 -2.27,4.81 -3.57,7.14 -3.43,-1.46 -7.07,-2.41 -10.28,-4.34 1.17,-2.07 2.34,-4.14 3.47,-6.22 z"
           id="path108"
           style="fill:#265396;fill-opacity:1;stroke:none;stroke-opacity:1" /><path
           fill="#292c64"
           opacity="1"
           d="m 256.5,636.88 c 2.43,-1.42 4.87,-2.81 7.35,-4.14 8.22,13.42 17.15,26.38 26.68,38.91 -2.27,1.43 -4.4,3.07 -6.38,4.88 C 273.54,664.34 265.1,650.5 256.5,636.88 Z"
           id="path109"
           style="fill:#265396;fill-opacity:1;stroke:none;stroke-opacity:1" /><path
           fill="#292c64"
           opacity="1"
           d="m 223.55,647.09 c 2.64,-1.45 5.27,-2.93 7.76,-4.63 2.19,4.09 4.55,8.08 6.63,12.23 -2.38,2.03 -4.71,4.21 -7.62,5.47 -2.23,-4.37 -4.89,-8.52 -6.77,-13.07 z"
           id="path110"
           style="fill:#265396;fill-opacity:1;stroke:none;stroke-opacity:1" /><path
           fill="#292c64"
           opacity="1"
           d="m 303.41,652.7 c 2.25,-1.47 4.28,-3.22 6.33,-4.94 1.71,1.83 3.35,3.72 5.05,5.59 -1.64,1.77 -3.33,3.5 -5.03,5.23 -2.33,-1.73 -4.37,-3.79 -6.35,-5.88 z"
           id="path111"
           style="fill:#265396;fill-opacity:1;stroke:none;stroke-opacity:1" /><path
           fill="#292c64"
           opacity="1"
           d="m 562.39,663.77 c 0.37,-2.39 0.86,-4.76 1.4,-7.11 1.85,0.32 3.7,0.69 5.57,1.02 -0.49,2.22 -0.94,4.45 -1.31,6.7 -1.9,-0.18 -3.78,-0.44 -5.66,-0.61 z"
           id="path112"
           style="fill:#265396;fill-opacity:1;stroke:none;stroke-opacity:1" /><path
           fill="#292c64"
           opacity="1"
           d="m 744.52,697.65 c 13.81,-12.01 25.29,-26.37 36.21,-40.98 -13.96,26.42 -35.3,48.63 -60.32,64.83 -15.98,10.48 -33.42,18.71 -51.5,24.86 -0.83,-1.88 -1.71,-3.73 -2.6,-5.57 28.75,-8.65 55.41,-23.66 78.21,-43.14 z"
           id="path113"
           style="fill:#265396;fill-opacity:1;stroke:none;stroke-opacity:1" /><path
           fill="#292c64"
           opacity="1"
           d="m 232.38,664.12 c 2.81,-1.68 5.4,-3.69 7.86,-5.84 7.97,12.7 16.02,25.37 25,37.4 9.16,11.73 18.61,23.31 29.29,33.71 15.06,15.47 32.03,28.97 49.6,41.47 49.13,33.37 107.45,53.68 166.93,56.01 20.06,1.52 40.15,-0.7 60.04,-3.19 24.67,-4.48 49.16,-10.92 72.04,-21.31 2.21,-1 4.54,-1.67 6.9,-2.23 1.33,-1.5 3.1,-2.43 4.89,-3.26 0.21,0.37 0.62,1.11 0.83,1.48 -31.48,17.83 -66.93,27.75 -102.61,32.79 -19.97,2 -40.13,3.36 -60.17,1.45 C 457.4,830.4 422.51,820.96 389.85,806.86 353.29,790.65 319.28,768.31 290.94,740.01 279.43,728.44 268.31,716.45 258.3,703.55 249.07,690.8 240.01,677.9 232.38,664.12 Z"
           id="path114"
           style="fill:#265396;fill-opacity:1;stroke:none;stroke-opacity:1" /><path
           fill="#292c64"
           opacity="1"
           d="m 575.39,665.3 c 0.2,-2.25 0.36,-4.49 0.45,-6.74 2.18,0.11 4.37,0.23 6.56,0.35 -0.38,2.33 -0.75,4.66 -1.13,6.99 -1.96,-0.24 -3.92,-0.44 -5.88,-0.6 z"
           id="path115"
           style="fill:#265396;fill-opacity:1;stroke:none;stroke-opacity:1" /><path
           fill="#292c64"
           opacity="1"
           d="m 314.46,664.25 c 1.94,-1.4 3.79,-2.91 5.61,-4.45 13.23,13.5 26.85,26.74 42.16,37.91 5.63,4.18 11.16,8.5 16.97,12.45 -1.4,2.34 -2.98,4.58 -4.92,6.52 -15.91,-11.17 -31.28,-23.2 -45.23,-36.76 -5.05,-5.05 -10.38,-9.86 -14.59,-15.67 z"
           id="path116"
           style="fill:#265396;fill-opacity:1;stroke:none;stroke-opacity:1" /><path
           fill="#292c64"
           opacity="1"
           d="m 287.72,681.36 c 2.42,-1.39 4.62,-3.1 6.56,-5.09 13.31,15.15 27.14,29.94 42.72,42.81 13.42,11.51 27.96,21.66 43.01,30.94 10.54,5.82 20.87,12.08 31.83,17.13 15.93,6.96 31.99,13.87 48.8,18.48 17.54,5.59 35.62,9.42 53.83,12.12 34.91,4.24 70.52,3.39 105.05,-3.39 12.09,-1.95 23.72,-5.89 35.49,-9.17 -4.32,1.39 -8.2,3.81 -12.43,5.43 -15.85,6.85 -32.75,10.78 -49.69,13.82 -40.09,6.67 -81.43,3.69 -120.74,-6.09 -57.25,-14.28 -110.82,-43.23 -153.72,-83.78 -5.93,-5.38 -11.62,-11.04 -16.9,-17.06 -4.71,-5.29 -9.72,-10.36 -13.81,-16.15 z"
           id="path117"
           style="fill:#265396;fill-opacity:1;stroke:none;stroke-opacity:1" /><path
           fill="#292c64"
           opacity="1"
           d="m 781.21,676.6 c 1.59,1.35 3.3,2.55 5.15,3.56 -16.68,26.88 -37.1,51.5 -60.79,72.48 -9.92,8.07 -19.82,16.23 -30.57,23.21 -7.45,5.2 -15.01,10.38 -23.15,14.42 -0.21,-1.15 -0.95,-3.05 0.63,-3.56 6.22,-2.39 11.15,-7.04 16.85,-10.36 19.43,-13.89 37.6,-29.62 53.56,-47.41 9.2,-10.94 18.64,-21.76 26.35,-33.83 4.22,-6.02 8.22,-12.19 11.97,-18.51 z"
           id="path118"
           style="fill:#265396;fill-opacity:1;stroke:none;stroke-opacity:1" /><path
           fill="#292c64"
           opacity="1"
           d="m 558.15,679.19 c 2.24,0.3 4.49,0.62 6.74,0.99 -0.35,2.13 -0.71,4.27 -1.01,6.42 -2.3,-0.14 -4.59,-0.33 -6.87,-0.63 0.2,-2.29 0.63,-4.55 1.14,-6.78 z"
           id="path119"
           style="fill:#265396;fill-opacity:1;stroke:none;stroke-opacity:1" /><path
           fill="#292c64"
           opacity="1"
           d="m 571.55,681.34 c 2.8,0.15 5.6,0.32 8.4,0.46 -0.11,2.23 -0.22,4.47 -0.33,6.72 -3.05,-0.35 -6.09,-0.73 -9.14,-0.87 0.39,-2.1 0.76,-4.21 1.07,-6.31 z"
           id="path120"
           style="fill:#265396;fill-opacity:1;stroke:none;stroke-opacity:1" /><path
           fill="#292c64"
           opacity="1"
           d="m 414.23,698.01 c 2.42,1.09 4.74,2.39 6.98,3.83 10.35,6.3 21.25,11.63 32.07,17.08 -1.07,2.19 -2.11,4.41 -3.19,6.61 -13.07,-5.68 -25.34,-13 -37.66,-20.09 -1.54,-0.98 -1.56,-2.03 -0.07,-3.16 0.72,-1.38 1.3,-2.83 1.87,-4.27 z"
           id="path121"
           style="fill:#265396;fill-opacity:1;stroke:none;stroke-opacity:1" /><path
           fill="#292c64"
           opacity="1"
           d="m 382.34,712.83 c 3.84,1.38 6.76,4.36 10.37,6.17 -1.57,2.01 -2.58,4.73 -4.83,6.06 -3.64,-1.52 -6.76,-4.04 -10.07,-6.14 1.52,-2.03 3.08,-4.02 4.53,-6.09 z"
           id="path122"
           style="fill:#265396;fill-opacity:1;stroke:none;stroke-opacity:1" /><path
           fill="#292c64"
           opacity="1"
           d="m 653.15,721.03 c 1.73,-0.72 3.55,-1.19 5.35,-1.74 0.47,1.97 0.92,3.96 1.36,5.96 -1.82,0.23 -3.64,0.48 -5.45,0.7 -0.48,-1.63 -0.99,-3.25 -1.26,-4.92 z"
           id="path123"
           style="fill:#265396;fill-opacity:1;stroke:none;stroke-opacity:1" /><path
           fill="#292c64"
           opacity="1"
           d="m 396.41,721.15 c 2.85,1.8 5.62,3.72 8.53,5.44 -1.48,2.08 -2.92,4.19 -4.27,6.37 -3.06,-1.66 -6.11,-3.35 -9.09,-5.14 1.6,-2.23 3.21,-4.46 4.83,-6.67 z"
           id="path124"
           style="fill:#265396;fill-opacity:1;stroke:none;stroke-opacity:1" /><path
           fill="#292c64"
           opacity="1"
           d="m 457.84,728.74 c 0.98,-2.3 2.07,-4.55 3.19,-6.78 20.04,8.52 40.74,15.47 61.89,20.65 7.82,1.79 15.71,3.21 23.55,4.86 -0.5,2.14 -0.99,4.3 -1.48,6.47 -15.1,-1.69 -29.72,-6.07 -44.41,-9.82 -14.59,-4.1 -28.82,-9.41 -42.74,-15.38 z"
           id="path125"
           style="fill:#265396;fill-opacity:1;stroke:none;stroke-opacity:1" /><path
           fill="#292c64"
           opacity="1"
           d="m 638.11,724.19 c 2.72,-0.71 5.47,-1.32 8.24,-1.83 0.39,1.92 0.82,3.83 1.24,5.77 -2.72,0.49 -5.41,1.07 -8.1,1.63 -0.48,-1.86 -0.95,-3.71 -1.38,-5.57 z"
           id="path126"
           style="fill:#265396;fill-opacity:1;stroke:none;stroke-opacity:1" /><path
           fill="#292c64"
           opacity="1"
           d="m 624.04,726.3 c 2.39,-0.29 4.78,-0.62 7.17,-0.95 0.29,1.91 0.62,3.82 1.06,5.72 -2.49,0.41 -4.97,0.87 -7.45,1.35 -0.24,-2.05 -0.51,-4.09 -0.78,-6.12 z"
           id="path127"
           style="fill:#265396;fill-opacity:1;stroke:none;stroke-opacity:1" /><path
           fill="#292c64"
           opacity="1"
           d="m 607.43,727.89 c 3.88,-0.19 7.77,-0.42 11.64,-0.84 0.19,2.03 0.41,4.07 0.7,6.11 -4,0.41 -8.01,0.74 -12.02,0.98 -0.09,-2.1 -0.2,-4.18 -0.32,-6.25 z"
           id="path128"
           style="fill:#265396;fill-opacity:1;stroke:none;stroke-opacity:1" /><path
           fill="#292c64"
           opacity="1"
           d="m 404,734.99 c 1.33,-2.27 2.67,-4.54 3.99,-6.81 4.08,1.47 7.73,3.83 11.48,5.97 -1.3,2.24 -2.58,4.49 -3.89,6.74 -4,-1.69 -7.71,-3.96 -11.58,-5.9 z"
           id="path129"
           style="fill:#265396;fill-opacity:1;stroke:none;stroke-opacity:1" /><path
           fill="#292c64"
           opacity="1"
           d="m 426.35,737.13 c 30.92,14.77 63.84,25.06 97.36,31.97 -0.42,2.56 -0.98,5.11 -1.57,7.64 -34.28,-6.27 -67.93,-16.6 -99.3,-31.87 0.91,-2.69 2.17,-5.24 3.51,-7.74 z"
           id="path130"
           style="fill:#265396;fill-opacity:1;stroke:none;stroke-opacity:1" /><path
           fill="#292c64"
           opacity="1"
           d="m 669.76,763.01 c 15.59,-5.78 31.46,-12.1 44.44,-22.73 -8.62,8.84 -19.4,15.2 -30.32,20.78 -4.25,2.03 -8.39,4.34 -12.9,5.76 -0.4,-1.29 -0.81,-2.56 -1.22,-3.81 z"
           id="path131"
           style="fill:#265396;fill-opacity:1;stroke:none;stroke-opacity:1" /><path
           fill="#292c64"
           opacity="1"
           d="m 654.07,744.17 c 3,-0.64 5.98,-1.39 8.94,-2.24 0.81,1.84 1.61,3.68 2.47,5.51 -3.46,1.13 -6.94,2.19 -10.5,2.94 -0.32,-2.07 -0.64,-4.15 -0.91,-6.21 z"
           id="path132"
           style="fill:#265396;fill-opacity:1;stroke:none;stroke-opacity:1" /><path
           fill="#292c64"
           opacity="1"
           d="m 592,751.54 c 19.32,0.24 38.6,-2.1 57.46,-6.19 0.55,1.94 1.11,3.9 1.74,5.84 -33.52,9.43 -69,8.52 -103.21,3.86 0.46,-2.31 0.97,-4.6 1.5,-6.89 14.12,1.57 28.26,3.56 42.51,3.38 z"
           id="path133"
           style="fill:#265396;fill-opacity:1;stroke:none;stroke-opacity:1" /><path
           fill="#292c64"
           opacity="1"
           d="m 651.84,768.75 c 3.28,-1.24 6.71,-2.04 10.08,-3.02 0.42,1.47 0.88,2.96 1.37,4.44 -3.31,1.35 -6.75,2.33 -10.22,3.13 -0.41,-1.52 -0.82,-3.04 -1.23,-4.55 z"
           id="path134"
           style="fill:#265396;fill-opacity:1;stroke:none;stroke-opacity:1" /><path
           fill="#292c64"
           opacity="1"
           d="m 637.03,771.81 c 3.75,-0.72 7.46,-1.65 11.23,-2.32 0.35,1.59 0.73,3.2 1.16,4.79 -3.68,0.96 -7.39,1.79 -11.12,2.55 -0.43,-1.69 -0.85,-3.35 -1.27,-5.02 z"
           id="path135"
           style="fill:#265396;fill-opacity:1;stroke:none;stroke-opacity:1" /><path
           fill="#292c64"
           opacity="1"
           d="m 533.09,778.39 c 0.58,-2.38 1.22,-4.73 1.8,-7.1 2.86,0.35 5.73,0.66 8.6,0.97 -0.47,2.46 -1.05,4.9 -1.58,7.37 -2.97,-0.24 -5.89,-0.78 -8.82,-1.24 z"
           id="path136"
           style="fill:#265396;fill-opacity:1;stroke:none;stroke-opacity:1" /><path
           fill="#292c64"
           opacity="1"
           d="m 545.54,780.22 c 0.43,-2.61 0.93,-5.23 1.97,-7.66 2.67,0.84 5.46,1.09 8.26,1.23 -0.52,2.36 -0.98,4.75 -1.35,7.15 -2.96,-0.23 -5.92,-0.44 -8.88,-0.72 z"
           id="path137"
           style="fill:#265396;fill-opacity:1;stroke:none;stroke-opacity:1" /><path
           fill="#292c64"
           opacity="1"
           d="m 562.81,774.59 c 22.69,1.33 45.57,1.54 68.1,-1.93 0.26,1.81 0.56,3.63 0.83,5.45 -22.9,4.17 -46.31,5.35 -69.51,3.32 0.18,-2.29 0.38,-4.57 0.58,-6.84 z"
           id="path138"
           style="fill:#265396;fill-opacity:1;stroke:none;stroke-opacity:1" /><path
           fill="#292c64"
           opacity="1"
           d="m 659.54,794.24 c 3.06,-1.61 5.92,-3.57 9,-5.14 0.11,0.69 0.33,2.06 0.44,2.75 -2.83,1.48 -5.72,2.88 -8.24,4.86 -0.3,-0.62 -0.9,-1.85 -1.2,-2.47 z"
           id="path139"
           style="fill:#265396;fill-opacity:1;stroke:none;stroke-opacity:1" /></g></g><circle
       style="fill:none;stroke:none;stroke-width:0.258298;stroke-opacity:1"
       id="path140"
       cx="-116.93788"
       cy="16.917795"
       r="63.542667"
       transform="rotate(-128.57509)" /><circle
       style="fill:none;stroke:none;stroke-width:0.258298;stroke-opacity:1"
       id="path140-6"
       cx="94.676216"
       cy="70.690063"
       r="63.542667"
       transform="matrix(0.17468409,0.98462453,0.98462453,-0.17468409,0,0)" /></g></svg>
